<mxfile host="app.diagrams.net" modified="2023-04-19T01:52:39.155Z" agent="Mozilla/5.0 (Macintosh; Intel Mac OS X 10_15_7) AppleWebKit/537.36 (KHTML, like Gecko) Chrome/110.0.0.0 Safari/537.36" etag="DSV4rbdafojmf2ZjwQUK" version="21.1.8" type="github">
  <diagram id="C5RBs43oDa-KdzZeNtuy" name="Page-1">
    <mxGraphModel dx="1257" dy="648" grid="1" gridSize="10" guides="1" tooltips="1" connect="1" arrows="1" fold="1" page="1" pageScale="1" pageWidth="827" pageHeight="1169" math="0" shadow="0">
      <root>
        <mxCell id="WIyWlLk6GJQsqaUBKTNV-0" />
        <mxCell id="WIyWlLk6GJQsqaUBKTNV-1" parent="WIyWlLk6GJQsqaUBKTNV-0" />
        <mxCell id="_Vl5PRp7Fob5KUix1Qb2-1" style="edgeStyle=orthogonalEdgeStyle;rounded=0;orthogonalLoop=1;jettySize=auto;html=1;" edge="1" parent="WIyWlLk6GJQsqaUBKTNV-1" source="_Vl5PRp7Fob5KUix1Qb2-0">
          <mxGeometry relative="1" as="geometry">
            <mxPoint x="170" y="190" as="targetPoint" />
          </mxGeometry>
        </mxCell>
        <mxCell id="_Vl5PRp7Fob5KUix1Qb2-0" value="Input Corpus" style="ellipse;whiteSpace=wrap;html=1;" vertex="1" parent="WIyWlLk6GJQsqaUBKTNV-1">
          <mxGeometry x="110" y="100" width="120" height="40" as="geometry" />
        </mxCell>
        <mxCell id="_Vl5PRp7Fob5KUix1Qb2-2" value="Tokenized Corpus" style="rounded=1;whiteSpace=wrap;html=1;" vertex="1" parent="WIyWlLk6GJQsqaUBKTNV-1">
          <mxGeometry x="110" y="190" width="120" height="40" as="geometry" />
        </mxCell>
        <mxCell id="_Vl5PRp7Fob5KUix1Qb2-20" style="edgeStyle=orthogonalEdgeStyle;rounded=0;orthogonalLoop=1;jettySize=auto;html=1;exitX=0.5;exitY=1;exitDx=0;exitDy=0;entryX=0;entryY=0.5;entryDx=0;entryDy=0;" edge="1" parent="WIyWlLk6GJQsqaUBKTNV-1" source="_Vl5PRp7Fob5KUix1Qb2-4" target="_Vl5PRp7Fob5KUix1Qb2-7">
          <mxGeometry relative="1" as="geometry" />
        </mxCell>
        <mxCell id="_Vl5PRp7Fob5KUix1Qb2-4" value="Tokens" style="rounded=1;whiteSpace=wrap;html=1;" vertex="1" parent="WIyWlLk6GJQsqaUBKTNV-1">
          <mxGeometry x="320" y="130" width="80" height="30" as="geometry" />
        </mxCell>
        <mxCell id="_Vl5PRp7Fob5KUix1Qb2-7" value="Part of Speech tagging (pos_tag)" style="rounded=1;whiteSpace=wrap;html=1;" vertex="1" parent="WIyWlLk6GJQsqaUBKTNV-1">
          <mxGeometry x="400" y="180" width="120" height="50" as="geometry" />
        </mxCell>
        <mxCell id="_Vl5PRp7Fob5KUix1Qb2-9" value="" style="curved=1;endArrow=classic;html=1;rounded=0;entryX=0;entryY=0.5;entryDx=0;entryDy=0;" edge="1" parent="WIyWlLk6GJQsqaUBKTNV-1" target="_Vl5PRp7Fob5KUix1Qb2-4">
          <mxGeometry width="50" height="50" relative="1" as="geometry">
            <mxPoint x="230" y="210" as="sourcePoint" />
            <mxPoint x="280" y="160" as="targetPoint" />
            <Array as="points">
              <mxPoint x="280" y="210" />
              <mxPoint x="270" y="170" />
            </Array>
          </mxGeometry>
        </mxCell>
        <mxCell id="_Vl5PRp7Fob5KUix1Qb2-13" value="Tokenization" style="text;html=1;strokeColor=none;fillColor=none;align=center;verticalAlign=middle;whiteSpace=wrap;rounded=0;" vertex="1" parent="WIyWlLk6GJQsqaUBKTNV-1">
          <mxGeometry x="180" y="150" width="60" height="30" as="geometry" />
        </mxCell>
        <mxCell id="_Vl5PRp7Fob5KUix1Qb2-19" value="" style="endArrow=classic;html=1;rounded=0;entryX=0.5;entryY=0;entryDx=0;entryDy=0;" edge="1" parent="WIyWlLk6GJQsqaUBKTNV-1" target="_Vl5PRp7Fob5KUix1Qb2-7">
          <mxGeometry width="50" height="50" relative="1" as="geometry">
            <mxPoint x="400" y="150" as="sourcePoint" />
            <mxPoint x="450" y="100" as="targetPoint" />
          </mxGeometry>
        </mxCell>
        <mxCell id="_Vl5PRp7Fob5KUix1Qb2-21" value="Lemmatize" style="text;html=1;strokeColor=none;fillColor=none;align=center;verticalAlign=middle;whiteSpace=wrap;rounded=0;" vertex="1" parent="WIyWlLk6GJQsqaUBKTNV-1">
          <mxGeometry x="300" y="170" width="60" height="30" as="geometry" />
        </mxCell>
        <mxCell id="_Vl5PRp7Fob5KUix1Qb2-23" value="Pos_tag" style="text;html=1;strokeColor=none;fillColor=none;align=center;verticalAlign=middle;whiteSpace=wrap;rounded=0;" vertex="1" parent="WIyWlLk6GJQsqaUBKTNV-1">
          <mxGeometry x="430" y="140" width="60" height="30" as="geometry" />
        </mxCell>
        <mxCell id="_Vl5PRp7Fob5KUix1Qb2-24" value="Tokens in corpus" style="rhombus;whiteSpace=wrap;html=1;" vertex="1" parent="WIyWlLk6GJQsqaUBKTNV-1">
          <mxGeometry x="240" y="260" width="80" height="80" as="geometry" />
        </mxCell>
        <mxCell id="_Vl5PRp7Fob5KUix1Qb2-28" value="" style="endArrow=classic;html=1;rounded=0;entryX=0;entryY=0;entryDx=0;entryDy=0;exitX=1;exitY=1;exitDx=0;exitDy=0;" edge="1" parent="WIyWlLk6GJQsqaUBKTNV-1" source="_Vl5PRp7Fob5KUix1Qb2-2" target="_Vl5PRp7Fob5KUix1Qb2-24">
          <mxGeometry width="50" height="50" relative="1" as="geometry">
            <mxPoint x="170" y="240" as="sourcePoint" />
            <mxPoint x="220" y="190" as="targetPoint" />
          </mxGeometry>
        </mxCell>
        <mxCell id="_Vl5PRp7Fob5KUix1Qb2-30" value="Synonym match (synset)" style="whiteSpace=wrap;html=1;aspect=fixed;" vertex="1" parent="WIyWlLk6GJQsqaUBKTNV-1">
          <mxGeometry x="344" y="290" width="70" height="70" as="geometry" />
        </mxCell>
        <mxCell id="_Vl5PRp7Fob5KUix1Qb2-31" value="" style="endArrow=classic;html=1;rounded=0;entryX=1;entryY=0.5;entryDx=0;entryDy=0;exitX=0.5;exitY=1;exitDx=0;exitDy=0;" edge="1" parent="WIyWlLk6GJQsqaUBKTNV-1" source="_Vl5PRp7Fob5KUix1Qb2-7" target="_Vl5PRp7Fob5KUix1Qb2-30">
          <mxGeometry width="50" height="50" relative="1" as="geometry">
            <mxPoint x="450" y="320" as="sourcePoint" />
            <mxPoint x="500" y="270" as="targetPoint" />
          </mxGeometry>
        </mxCell>
        <mxCell id="_Vl5PRp7Fob5KUix1Qb2-32" value="" style="endArrow=classic;html=1;rounded=0;entryX=1;entryY=1;entryDx=0;entryDy=0;exitX=0;exitY=0.5;exitDx=0;exitDy=0;" edge="1" parent="WIyWlLk6GJQsqaUBKTNV-1" source="_Vl5PRp7Fob5KUix1Qb2-30" target="_Vl5PRp7Fob5KUix1Qb2-24">
          <mxGeometry width="50" height="50" relative="1" as="geometry">
            <mxPoint x="280" y="400" as="sourcePoint" />
            <mxPoint x="330" y="350" as="targetPoint" />
          </mxGeometry>
        </mxCell>
        <mxCell id="_Vl5PRp7Fob5KUix1Qb2-33" value="Similarity checks" style="text;html=1;strokeColor=none;fillColor=none;align=center;verticalAlign=middle;whiteSpace=wrap;rounded=0;" vertex="1" parent="WIyWlLk6GJQsqaUBKTNV-1">
          <mxGeometry x="440" y="270" width="60" height="30" as="geometry" />
        </mxCell>
        <mxCell id="_Vl5PRp7Fob5KUix1Qb2-34" value="" style="endArrow=classic;html=1;rounded=0;exitX=0;exitY=1;exitDx=0;exitDy=0;entryX=1;entryY=0.5;entryDx=0;entryDy=0;" edge="1" parent="WIyWlLk6GJQsqaUBKTNV-1" source="_Vl5PRp7Fob5KUix1Qb2-24" target="_Vl5PRp7Fob5KUix1Qb2-35">
          <mxGeometry width="50" height="50" relative="1" as="geometry">
            <mxPoint x="180" y="360" as="sourcePoint" />
            <mxPoint x="210" y="350" as="targetPoint" />
          </mxGeometry>
        </mxCell>
        <mxCell id="_Vl5PRp7Fob5KUix1Qb2-37" style="edgeStyle=orthogonalEdgeStyle;rounded=0;orthogonalLoop=1;jettySize=auto;html=1;exitX=0;exitY=0.5;exitDx=0;exitDy=0;entryX=0.357;entryY=0.2;entryDx=0;entryDy=0;entryPerimeter=0;" edge="1" parent="WIyWlLk6GJQsqaUBKTNV-1" source="_Vl5PRp7Fob5KUix1Qb2-35" target="_Vl5PRp7Fob5KUix1Qb2-36">
          <mxGeometry relative="1" as="geometry" />
        </mxCell>
        <mxCell id="_Vl5PRp7Fob5KUix1Qb2-35" value="New corpus with same-tense words" style="rounded=1;whiteSpace=wrap;html=1;" vertex="1" parent="WIyWlLk6GJQsqaUBKTNV-1">
          <mxGeometry x="90" y="330" width="120" height="50" as="geometry" />
        </mxCell>
        <mxCell id="_Vl5PRp7Fob5KUix1Qb2-39" style="edgeStyle=orthogonalEdgeStyle;rounded=0;orthogonalLoop=1;jettySize=auto;html=1;entryX=0;entryY=0.5;entryDx=0;entryDy=0;" edge="1" parent="WIyWlLk6GJQsqaUBKTNV-1" source="_Vl5PRp7Fob5KUix1Qb2-36" target="_Vl5PRp7Fob5KUix1Qb2-38">
          <mxGeometry relative="1" as="geometry" />
        </mxCell>
        <mxCell id="_Vl5PRp7Fob5KUix1Qb2-36" value="for tokens in corpus:" style="rhombus;whiteSpace=wrap;html=1;" vertex="1" parent="WIyWlLk6GJQsqaUBKTNV-1">
          <mxGeometry x="20" y="400" width="140" height="70" as="geometry" />
        </mxCell>
        <mxCell id="_Vl5PRp7Fob5KUix1Qb2-38" value="Lemma token 1 + Lemma token 2... order: Lemma token order+1" style="rounded=1;whiteSpace=wrap;html=1;" vertex="1" parent="WIyWlLk6GJQsqaUBKTNV-1">
          <mxGeometry x="140" y="460" width="230" height="60" as="geometry" />
        </mxCell>
        <mxCell id="_Vl5PRp7Fob5KUix1Qb2-41" value="" style="endArrow=classic;html=1;rounded=0;exitX=0.5;exitY=1;exitDx=0;exitDy=0;entryX=0.5;entryY=0;entryDx=0;entryDy=0;" edge="1" parent="WIyWlLk6GJQsqaUBKTNV-1" source="_Vl5PRp7Fob5KUix1Qb2-35" target="_Vl5PRp7Fob5KUix1Qb2-38">
          <mxGeometry width="50" height="50" relative="1" as="geometry">
            <mxPoint x="220" y="440" as="sourcePoint" />
            <mxPoint x="270" y="390" as="targetPoint" />
          </mxGeometry>
        </mxCell>
        <mxCell id="_Vl5PRp7Fob5KUix1Qb2-42" value="Markov Chain" style="text;html=1;strokeColor=none;fillColor=none;align=center;verticalAlign=middle;whiteSpace=wrap;rounded=0;" vertex="1" parent="WIyWlLk6GJQsqaUBKTNV-1">
          <mxGeometry x="210" y="410" width="100" height="30" as="geometry" />
        </mxCell>
        <mxCell id="_Vl5PRp7Fob5KUix1Qb2-47" style="edgeStyle=orthogonalEdgeStyle;rounded=0;orthogonalLoop=1;jettySize=auto;html=1;entryX=0.5;entryY=0;entryDx=0;entryDy=0;" edge="1" parent="WIyWlLk6GJQsqaUBKTNV-1" source="_Vl5PRp7Fob5KUix1Qb2-44" target="_Vl5PRp7Fob5KUix1Qb2-46">
          <mxGeometry relative="1" as="geometry" />
        </mxCell>
        <mxCell id="_Vl5PRp7Fob5KUix1Qb2-44" value="Random token" style="rounded=1;whiteSpace=wrap;html=1;" vertex="1" parent="WIyWlLk6GJQsqaUBKTNV-1">
          <mxGeometry x="420" y="395" width="120" height="40" as="geometry" />
        </mxCell>
        <mxCell id="_Vl5PRp7Fob5KUix1Qb2-45" value="" style="endArrow=classic;html=1;rounded=0;entryX=0;entryY=1;entryDx=0;entryDy=0;exitX=0.943;exitY=0.017;exitDx=0;exitDy=0;exitPerimeter=0;" edge="1" parent="WIyWlLk6GJQsqaUBKTNV-1" source="_Vl5PRp7Fob5KUix1Qb2-38" target="_Vl5PRp7Fob5KUix1Qb2-44">
          <mxGeometry width="50" height="50" relative="1" as="geometry">
            <mxPoint x="370" y="460" as="sourcePoint" />
            <mxPoint x="410" y="420" as="targetPoint" />
          </mxGeometry>
        </mxCell>
        <mxCell id="_Vl5PRp7Fob5KUix1Qb2-46" value="Random value from token key" style="rounded=1;whiteSpace=wrap;html=1;" vertex="1" parent="WIyWlLk6GJQsqaUBKTNV-1">
          <mxGeometry x="420" y="470" width="120" height="40" as="geometry" />
        </mxCell>
        <mxCell id="_Vl5PRp7Fob5KUix1Qb2-52" style="edgeStyle=orthogonalEdgeStyle;rounded=0;orthogonalLoop=1;jettySize=auto;html=1;" edge="1" parent="WIyWlLk6GJQsqaUBKTNV-1" source="_Vl5PRp7Fob5KUix1Qb2-48">
          <mxGeometry relative="1" as="geometry">
            <mxPoint x="330" y="584.5" as="targetPoint" />
          </mxGeometry>
        </mxCell>
        <mxCell id="_Vl5PRp7Fob5KUix1Qb2-48" value="for order" style="rhombus;whiteSpace=wrap;html=1;" vertex="1" parent="WIyWlLk6GJQsqaUBKTNV-1">
          <mxGeometry x="540" y="545" width="80" height="80" as="geometry" />
        </mxCell>
        <mxCell id="_Vl5PRp7Fob5KUix1Qb2-54" style="edgeStyle=orthogonalEdgeStyle;rounded=0;orthogonalLoop=1;jettySize=auto;html=1;" edge="1" parent="WIyWlLk6GJQsqaUBKTNV-1" source="_Vl5PRp7Fob5KUix1Qb2-53">
          <mxGeometry relative="1" as="geometry">
            <mxPoint x="150" y="585" as="targetPoint" />
          </mxGeometry>
        </mxCell>
        <mxCell id="_Vl5PRp7Fob5KUix1Qb2-56" style="edgeStyle=orthogonalEdgeStyle;rounded=0;orthogonalLoop=1;jettySize=auto;html=1;" edge="1" parent="WIyWlLk6GJQsqaUBKTNV-1" source="_Vl5PRp7Fob5KUix1Qb2-53">
          <mxGeometry relative="1" as="geometry">
            <mxPoint x="270" y="640" as="targetPoint" />
          </mxGeometry>
        </mxCell>
        <mxCell id="_Vl5PRp7Fob5KUix1Qb2-53" value="Output text" style="rounded=1;whiteSpace=wrap;html=1;" vertex="1" parent="WIyWlLk6GJQsqaUBKTNV-1">
          <mxGeometry x="210" y="565" width="120" height="40" as="geometry" />
        </mxCell>
        <mxCell id="_Vl5PRp7Fob5KUix1Qb2-55" value="End" style="rounded=1;whiteSpace=wrap;html=1;" vertex="1" parent="WIyWlLk6GJQsqaUBKTNV-1">
          <mxGeometry x="70" y="565" width="80" height="40" as="geometry" />
        </mxCell>
        <mxCell id="_Vl5PRp7Fob5KUix1Qb2-58" style="edgeStyle=orthogonalEdgeStyle;rounded=0;orthogonalLoop=1;jettySize=auto;html=1;entryX=0.5;entryY=1;entryDx=0;entryDy=0;" edge="1" parent="WIyWlLk6GJQsqaUBKTNV-1" source="_Vl5PRp7Fob5KUix1Qb2-57" target="_Vl5PRp7Fob5KUix1Qb2-55">
          <mxGeometry relative="1" as="geometry" />
        </mxCell>
        <mxCell id="_Vl5PRp7Fob5KUix1Qb2-57" value="Write to new file" style="rounded=1;whiteSpace=wrap;html=1;" vertex="1" parent="WIyWlLk6GJQsqaUBKTNV-1">
          <mxGeometry x="210" y="640" width="120" height="40" as="geometry" />
        </mxCell>
        <mxCell id="_Vl5PRp7Fob5KUix1Qb2-59" value="Order" style="rounded=1;whiteSpace=wrap;html=1;" vertex="1" parent="WIyWlLk6GJQsqaUBKTNV-1">
          <mxGeometry x="590" y="305" width="80" height="40" as="geometry" />
        </mxCell>
        <mxCell id="_Vl5PRp7Fob5KUix1Qb2-61" style="edgeStyle=orthogonalEdgeStyle;rounded=0;orthogonalLoop=1;jettySize=auto;html=1;entryX=0.5;entryY=0;entryDx=0;entryDy=0;" edge="1" parent="WIyWlLk6GJQsqaUBKTNV-1" source="_Vl5PRp7Fob5KUix1Qb2-60" target="_Vl5PRp7Fob5KUix1Qb2-59">
          <mxGeometry relative="1" as="geometry" />
        </mxCell>
        <mxCell id="_Vl5PRp7Fob5KUix1Qb2-60" value="Call line arguments" style="shape=parallelogram;perimeter=parallelogramPerimeter;whiteSpace=wrap;html=1;fixedSize=1;" vertex="1" parent="WIyWlLk6GJQsqaUBKTNV-1">
          <mxGeometry x="555" y="250" width="150" height="30" as="geometry" />
        </mxCell>
        <mxCell id="_Vl5PRp7Fob5KUix1Qb2-63" value="" style="endArrow=classic;html=1;rounded=0;entryX=0.5;entryY=0;entryDx=0;entryDy=0;exitX=0;exitY=0.5;exitDx=0;exitDy=0;" edge="1" parent="WIyWlLk6GJQsqaUBKTNV-1" source="_Vl5PRp7Fob5KUix1Qb2-59" target="_Vl5PRp7Fob5KUix1Qb2-38">
          <mxGeometry width="50" height="50" relative="1" as="geometry">
            <mxPoint x="480" y="380" as="sourcePoint" />
            <mxPoint x="530" y="330" as="targetPoint" />
          </mxGeometry>
        </mxCell>
        <mxCell id="_Vl5PRp7Fob5KUix1Qb2-69" value="" style="endArrow=classic;html=1;rounded=0;exitX=0.5;exitY=1;exitDx=0;exitDy=0;entryX=0;entryY=0;entryDx=0;entryDy=0;" edge="1" parent="WIyWlLk6GJQsqaUBKTNV-1" source="_Vl5PRp7Fob5KUix1Qb2-46" target="_Vl5PRp7Fob5KUix1Qb2-48">
          <mxGeometry width="50" height="50" relative="1" as="geometry">
            <mxPoint x="560" y="550" as="sourcePoint" />
            <mxPoint x="610" y="500" as="targetPoint" />
          </mxGeometry>
        </mxCell>
        <mxCell id="_Vl5PRp7Fob5KUix1Qb2-70" value="" style="endArrow=classic;html=1;rounded=0;exitX=0.5;exitY=1;exitDx=0;exitDy=0;entryX=1;entryY=0;entryDx=0;entryDy=0;" edge="1" parent="WIyWlLk6GJQsqaUBKTNV-1" source="_Vl5PRp7Fob5KUix1Qb2-59" target="_Vl5PRp7Fob5KUix1Qb2-48">
          <mxGeometry width="50" height="50" relative="1" as="geometry">
            <mxPoint x="590" y="460" as="sourcePoint" />
            <mxPoint x="640" y="410" as="targetPoint" />
          </mxGeometry>
        </mxCell>
      </root>
    </mxGraphModel>
  </diagram>
</mxfile>
